<svg width="20" height="21" viewBox="0 0 20 21" fill="none" xmlns="http://www.w3.org/2000/svg">
<path d="M18.75 10C18.7558 12.2053 17.9517 14.336 16.4903 15.9876C15.0289 17.6392 13.0119 18.6967 10.8223 18.9595C8.63273 19.2222 6.42285 18.6719 4.6122 17.413C2.80154 16.154 1.51614 14.2741 1 12.13C2.28605 13.3376 3.98583 14.0068 5.75 14C7.28084 14.001 8.76978 13.5001 9.98879 12.5741C11.2078 11.6481 12.0896 10.348 12.4992 8.87297C12.9088 7.39795 12.8236 5.82933 12.2566 4.40736C11.6896 2.9854 10.6721 1.7885 9.36 1H9.75C12.1369 1 14.4261 1.94821 16.114 3.63604C17.8018 5.32387 18.75 7.61305 18.75 10Z" stroke="#616161" stroke-width="2" stroke-linecap="round" stroke-linejoin="round"/>
</svg>
