<svg width="24" height="24" viewBox="0 0 24 24" fill="none" xmlns="http://www.w3.org/2000/svg">
<path d="M11.38 8.4L10 8.59L11 9.48L10.76 10.75L12 10.15L13.24 10.75L13 9.48L14 8.59L12.62 8.4L12 7.25L11.38 8.4Z" stroke="#616161" stroke-width="2" stroke-linecap="round" stroke-linejoin="round"/>
<path d="M12 15C15.3137 15 18 12.3137 18 9C18 5.68629 15.3137 3 12 3C8.68629 3 6 5.68629 6 9C6 12.3137 8.68629 15 12 15Z" stroke="#616161" stroke-width="2" stroke-linecap="round" stroke-linejoin="round"/>
<path d="M16.28 13.2C15.3954 14.1049 14.2474 14.7069 13 14.92L15 20L16.5 18.75L18.59 18.96L16.28 13.2Z" stroke="#616161" stroke-width="2" stroke-linecap="round" stroke-linejoin="round"/>
<path d="M5.40997 19L7.49997 18.79L8.99997 20L11 14.92C9.75262 14.7069 8.60457 14.1049 7.71997 13.2L5.40997 19Z" stroke="#616161" stroke-width="2" stroke-linecap="round" stroke-linejoin="round"/>
</svg>
