<svg width="24" height="24" viewBox="0 0 24 24" fill="none" xmlns="http://www.w3.org/2000/svg">
<path d="M12.05 8H11.95" stroke="#616161" stroke-width="2.5" stroke-linecap="round" stroke-linejoin="round"/>
<path d="M12 16V13" stroke="#616161" stroke-width="2" stroke-linecap="round" stroke-linejoin="round"/>
<path d="M3.11998 13.47C3.35314 14.8683 3.91329 16.1917 4.75482 17.3324C5.59635 18.4732 6.69545 19.3991 7.96259 20.0346C9.22973 20.6701 10.6291 20.9973 12.0466 20.9896C13.4642 20.9818 14.8599 20.6393 16.12 19.99L19.51 20.69C19.672 20.7231 19.8396 20.7155 19.998 20.6679C20.1563 20.6204 20.3004 20.5343 20.4173 20.4173C20.5343 20.3004 20.6204 20.1563 20.6679 19.998C20.7155 19.8396 20.7231 19.672 20.69 19.51L20 16.11C20.652 14.8431 20.994 13.4394 20.9977 12.0146C21.0013 10.5897 20.6666 9.1843 20.0211 7.91403C19.3756 6.64377 18.4377 5.54492 17.2846 4.7079C16.1315 3.87087 14.7961 3.3196 13.3884 3.09943C11.9806 2.87926 10.5407 2.99648 9.18706 3.44146C7.83345 3.88643 6.60483 4.64644 5.60229 5.65896C4.59976 6.67147 3.85195 7.90755 3.4204 9.2655C2.98884 10.6235 2.88588 12.0645 3.11998 13.47Z" stroke="#616161" stroke-width="2" stroke-linecap="round" stroke-linejoin="round"/>
</svg>
